<mxfile host="app.diagrams.net" modified="2024-03-17T07:42:28.501Z" agent="Mozilla/5.0 (Macintosh; Intel Mac OS X 10_15_7) AppleWebKit/537.36 (KHTML, like Gecko) Chrome/122.0.0.0 Safari/537.36" version="23.1.2" etag="esvA6XvYYQP9LVqXkDhL" type="github">
  <diagram name="Page-1" id="M1yy-GvjyFfZm3IYTepG">
    <mxGraphModel>
      <root>
        <mxCell id="0" />
        <mxCell id="1" parent="0" />
      </root>
    </mxGraphModel>
  </diagram>
</mxfile>
